<?xml version="1.0" encoding="utf-8"?>
<!-- Generator: Adobe Illustrator 24.0.0, SVG Export Plug-In . SVG Version: 6.00 Build 0)  -->
<svg version="1.1" id="Layer_1" xmlns="http://www.w3.org/2000/svg" xmlns:xlink="http://www.w3.org/1999/xlink" x="0px" y="0px"
	 viewBox="0 0 983.09 241.3" style="enable-background:new 0 0 983.09 241.3;" xml:space="preserve">
<g>
	<path style="fill:#FFFFFF;" d="M21.44,17.55H0V0h62.71v17.55H41.4v81.6H21.44V17.55z"/>
	<path style="fill:#FFFFFF;" d="M138.27,99.15h-17.55V88.57c-4.69,8.58-14.47,12.86-24.79,12.86c-23.58,0-37.38-18.36-37.38-39.13
		c0-23.18,16.75-38.99,37.38-38.99c13.4,0,21.57,7.1,24.79,13V25.59h17.55V99.15z M76.1,62.71c0,9.11,6.57,22.38,22.38,22.38
		c9.78,0,16.21-5.09,19.56-11.79c1.74-3.22,2.55-6.7,2.81-10.32c0.13-3.48-0.54-7.1-2.01-10.32c-3.08-6.97-9.92-13-20.5-13
		c-14.2,0-22.24,11.52-22.24,22.91V62.71z"/>
	<path style="fill:#FFFFFF;" d="M173.25,96.34l-27.74-70.75h18.76l17.95,48.91l17.69-48.91h18.76l-38.72,99.28h-18.76L173.25,96.34z
		"/>
	<path style="fill:#FFFFFF;" d="M227.51,0h17.55v99.15h-17.55V0z"/>
	<path style="fill:#FFFFFF;" d="M258.47,62.17c0-18.76,13.8-38.72,39.39-38.72s39.39,19.96,39.39,38.86
		c0,19.03-13.8,38.99-39.39,38.99s-39.39-19.96-39.39-38.99V62.17z M276.02,62.44c0,12.86,9.78,22.38,21.84,22.38
		s21.71-9.51,21.71-22.51c0-13-9.65-22.51-21.71-22.51s-21.84,9.51-21.84,22.51V62.44z"/>
	<path style="fill:#FFFFFF;" d="M350.65,25.59h16.61v9.65c3.22-6.57,9.25-11.79,20.37-11.92V41h-0.8
		c-12.33,0-18.62,5.76-18.62,18.49v39.66h-17.55V25.59z"/>
	<path style="fill:#FFFFFF;" d="M438.41,0h31.49c12.33,0,30.28,1.21,42.07,17.15c7.24,9.11,10.18,20.1,10.18,32.29
		c0,28-14.74,49.71-50.78,49.71h-32.96V0z M458.38,81.6h14.07c21.44,0,29.75-14.07,29.75-31.89c0-7.77-2.01-16.08-6.7-22.24
		c-4.15-5.36-10.85-9.92-22.91-9.92h-14.2V81.6z"/>
	<path style="fill:#FFFFFF;" d="M531.94,62.17c0-18.76,13.8-38.72,39.39-38.72s39.39,19.96,39.39,38.86
		c0,19.03-13.8,38.99-39.39,38.99s-39.39-19.96-39.39-38.99V62.17z M549.49,62.44c0,12.86,9.78,22.38,21.84,22.38
		s21.71-9.51,21.71-22.51c0-13-9.65-22.51-21.71-22.51s-21.84,9.51-21.84,22.51V62.44z"/>
	<path style="fill:#FFFFFF;" d="M629.08,39.12h-12.19V25.59h12.19V0h17.55v25.59h12.59v13.53h-12.59v60.03h-17.55V39.12z"/>
	<path style="fill:#FFFFFF;" d="M701.3,45.42c-0.13-3.89-2.14-7.91-8.98-7.91c-5.9,0-8.71,3.75-8.71,7.37
		c0.13,4.69,5.49,7.24,12.46,9.25c11.79,3.22,24.52,6.7,24.65,22.51c0.27,15.14-12.46,24.79-27.87,24.79
		c-11.39,0-26.8-5.9-28.14-23.72h17.55c0.67,7.91,7.5,9.51,10.85,9.51c5.49,0,10.18-3.62,10.05-8.58c0-6.3-5.49-8.04-19.03-12.73
		c-9.92-3.08-17.96-8.58-18.09-19.16c0-14.47,12.19-23.45,26.4-23.45c9.92,0,24.65,4.42,26.13,22.11H701.3z"/>
	<path style="fill:#FFFFFF;" d="M733.86,0h17.55v15.68h-17.55V0z M733.86,25.59h17.55v73.56h-17.55V25.59z"/>
	<path style="fill:#FFFFFF;" d="M769.23,0h17.55v53.59l25.32-28h21.04L802.6,58.02l30.68,41.13h-20.1l-26.4-36.71v36.71h-17.55V0z"
		/>
	<path style="fill:#FFFFFF;" d="M914.34,99.15h-17.55V88.57c-4.69,8.58-14.47,12.86-24.79,12.86c-23.58,0-37.38-18.36-37.38-39.13
		c0-23.18,16.75-38.99,37.38-38.99c13.4,0,21.57,7.1,24.79,13V25.59h17.55V99.15z M852.17,62.71c0,9.11,6.57,22.38,22.38,22.38
		c9.78,0,16.21-5.09,19.56-11.79c1.74-3.22,2.54-6.7,2.81-10.32c0.13-3.48-0.54-7.1-2.01-10.32c-3.08-6.97-9.92-13-20.5-13
		c-14.2,0-22.24,11.52-22.24,22.91V62.71z"/>
	<path style="fill:#FFFFFF;" d="M963.66,45.42c-0.13-3.89-2.14-7.91-8.98-7.91c-5.9,0-8.71,3.75-8.71,7.37
		c0.13,4.69,5.49,7.24,12.46,9.25c11.79,3.22,24.52,6.7,24.65,22.51c0.27,15.14-12.46,24.79-27.87,24.79
		c-11.39,0-26.8-5.9-28.14-23.72h17.55c0.67,7.91,7.5,9.51,10.85,9.51c5.49,0,10.18-3.62,10.05-8.58c0-6.3-5.49-8.04-19.03-12.73
		c-9.92-3.08-17.96-8.58-18.09-19.16c0-14.47,12.19-23.45,26.4-23.45c9.92,0,24.65,4.42,26.13,22.11H963.66z"/>
</g>
<g>
	<path style="fill:#FFFFFF;" d="M285.72,149.56h14.46v4.82h-8.98v6.51h8.76v4.82h-8.76v11.07h-5.48V149.56z"/>
	<path style="fill:#FFFFFF;" d="M309.49,149.56v16.74c0,1.36,0.04,2.76,0.77,4.12c0.66,1.18,1.88,2.06,3.68,2.06
		c1.84,0,3.05-0.85,3.64-1.95c0.77-1.32,0.77-2.76,0.77-4.23v-16.74h5.48v16.74c0,4.05-0.77,6.47-2.87,8.39
		c-1.66,1.58-3.97,2.61-6.99,2.61c-1.95,0-5.08-0.51-7.1-2.61c-2.5-2.39-2.87-4.75-2.87-8.39v-16.74H309.49z"/>
	<path style="fill:#FFFFFF;" d="M329.02,149.56h5.48v22.4h8.94v4.82h-14.42V149.56z"/>
	<path style="fill:#FFFFFF;" d="M346.35,149.56h5.48v22.4h8.94v4.82h-14.42V149.56z"/>
	<path style="fill:#FFFFFF;" d="M378.61,168.33c0.18,3.68,2.65,4.38,3.83,4.38c2.1,0,3.72-1.69,3.72-3.6c0-2.32-1.95-2.91-5.74-4.42
		c-2.06-0.74-6.81-2.43-6.81-7.58c0-5.22,4.6-8.06,9.01-8.06c3.6,0,8.39,1.91,8.61,7.95h-5.41c-0.22-1.25-0.7-3.35-3.38-3.35
		c-1.8,0-3.35,1.25-3.35,3.09c-0.04,2.02,1.43,2.54,6.03,4.45c4.16,1.8,6.48,3.79,6.48,7.65c0,4.38-2.69,8.46-9.09,8.46
		c-6.18,0-9.38-3.71-9.34-8.98H378.61z"/>
	<path style="fill:#FFFFFF;" d="M398.85,154.38h-5.89v-4.82h17.22v4.82h-5.85v22.4h-5.48V154.38z"/>
	<path style="fill:#FFFFFF;" d="M414.3,176.79h-5.96l11.04-27.22h4.82l10.78,27.22h-6l-1.99-5.33h-10.74L414.3,176.79z
		 M421.54,156.04l-3.86,11.04h7.84L421.54,156.04z"/>
	<path style="fill:#FFFFFF;" d="M462.34,167.66c-1.66,5.63-6.95,9.64-13.32,9.64c-8.31,0-14.27-6.58-14.27-14.16
		c0-7.25,5.63-14.09,14.24-14.09c7.84,0.04,12.29,5.81,13.35,9.79h-5.78c-0.85-1.88-3.27-4.93-7.62-4.97c-5.3,0-8.72,4.45-8.72,9.27
		c0,4.97,3.57,9.34,8.76,9.34c4.86,0,7.06-3.83,7.58-4.82H462.34z"/>
	<path style="fill:#FFFFFF;" d="M466.75,149.56h5.48v12.62l9.01-12.62h5.78l-9.86,13.58l10.85,13.65h-6.7l-9.09-12.21v12.21h-5.48
		V149.56z"/>
	<path style="fill:#FFFFFF;" d="M501.59,149.56h8.65c3.38,0,8.31,0.33,11.55,4.71c1.99,2.5,2.8,5.52,2.8,8.87
		c0,7.69-4.05,13.65-13.94,13.65h-9.05V149.56z M507.07,171.97h3.86c5.89,0,8.17-3.86,8.17-8.76c0-2.13-0.55-4.42-1.84-6.11
		c-1.14-1.47-2.98-2.72-6.29-2.72h-3.9V171.97z"/>
	<path style="fill:#FFFFFF;" d="M528.52,149.56h15.27v4.82H534v6.18h9.6v4.82H534v6.58h9.79v4.82h-15.27V149.56z"/>
	<path style="fill:#FFFFFF;" d="M546.07,149.56h5.67l6.81,20.67l6.88-20.67h5.67l-9.75,27.22h-5.55L546.07,149.56z"/>
	<path style="fill:#FFFFFF;" d="M574.17,149.56h15.27v4.82h-9.79v6.18h9.6v4.82h-9.6v6.58h9.79v4.82h-15.27V149.56z"/>
	<path style="fill:#FFFFFF;" d="M593.89,149.56h5.48v22.4h8.94v4.82h-14.42V149.56z"/>
	<path style="fill:#FFFFFF;" d="M608.24,163.4c0-8.72,6.7-14.35,14.27-14.35c8.24,0,14.31,6.4,14.31,14.13
		c0,7.73-6.03,14.13-14.35,14.13c-8.35,0-14.24-6.58-14.24-13.87V163.4z M613.72,163.18c0,4.97,3.57,9.31,8.87,9.31
		c5.52,0,8.76-4.78,8.76-9.27c0-4.56-3.24-9.34-8.79-9.34c-5.44,0-8.83,4.49-8.83,9.27V163.18z"/>
	<path style="fill:#FFFFFF;" d="M648.89,149.56c4.6,0,6.44,0.66,8.02,1.88c1.99,1.62,3.09,4.27,3.09,6.95s-1.14,5.48-2.87,6.88
		c-1.84,1.51-3.68,2.17-7.65,2.17h-3.35v9.34h-5.48v-27.22H648.89z M646.13,162.62h3.24c1.25,0,2.46-0.11,3.57-0.7
		c0.99-0.52,1.8-1.73,1.8-3.46c0-1.73-0.81-2.87-1.88-3.38c-1.1-0.59-2.35-0.7-3.72-0.7h-3.02V162.62z"/>
	<path style="fill:#FFFFFF;" d="M663.01,149.56h15.27v4.82h-9.79v6.18h9.6v4.82h-9.6v6.58h9.79v4.82h-15.27V149.56z"/>
	<path style="fill:#FFFFFF;" d="M682.51,149.56h8.24c4.23,0,6.66,0.66,8.13,1.73c2.24,1.62,3.46,4.38,3.46,7.39
		c0,1.99-0.55,3.75-1.47,5.08c-1.18,1.73-2.72,2.5-4.49,2.94l6.07,10.08h-5.74l-7.32-12.66h1.07c1.8,0,3.75-0.11,4.89-0.99
		c1.07-0.88,1.73-2.32,1.73-3.97s-0.81-3.16-2.02-3.94c-0.99-0.63-2.32-0.85-3.86-0.85h-3.2v22.4h-5.48V149.56z"/>
	<path style="fill:#FFFFFF;" d="M388.1,213.56v16.74c0,1.36,0.04,2.76,0.77,4.12c0.66,1.18,1.88,2.06,3.68,2.06
		c1.84,0,3.05-0.85,3.64-1.95c0.77-1.32,0.77-2.76,0.77-4.23v-16.74h5.48v16.74c0,4.05-0.77,6.47-2.87,8.39
		c-1.66,1.58-3.97,2.61-6.99,2.61c-1.95,0-5.08-0.51-7.1-2.61c-2.5-2.39-2.87-4.75-2.87-8.39v-16.74H388.1z"/>
	<path style="fill:#FFFFFF;" d="M407.53,213.56h5.48v27.22h-5.48V213.56z"/>
	<path style="fill:#FFFFFF;" d="M429.2,213.56h8.65c3.38,0,8.31,0.33,11.55,4.71c1.99,2.5,2.8,5.52,2.8,8.87
		c0,7.69-4.05,13.65-13.94,13.65h-9.05V213.56z M434.68,235.97h3.86c5.89,0,8.17-3.86,8.17-8.76c0-2.13-0.55-4.42-1.84-6.11
		c-1.14-1.47-2.98-2.72-6.29-2.72h-3.9V235.97z"/>
	<path style="fill:#FFFFFF;" d="M456.12,213.56h15.27v4.82h-9.79v6.18h9.6v4.82h-9.6v6.58h9.79v4.82h-15.27V213.56z"/>
	<path style="fill:#FFFFFF;" d="M479.7,232.33c0.18,3.68,2.65,4.38,3.83,4.38c2.1,0,3.72-1.69,3.72-3.6c0-2.32-1.95-2.91-5.74-4.42
		c-2.06-0.74-6.81-2.43-6.81-7.58c0-5.22,4.6-8.06,9.01-8.06c3.6,0,8.39,1.91,8.61,7.95h-5.41c-0.22-1.25-0.7-3.35-3.38-3.35
		c-1.8,0-3.35,1.25-3.35,3.09c-0.04,2.02,1.43,2.54,6.03,4.45c4.16,1.8,6.48,3.79,6.48,7.65c0,4.38-2.69,8.46-9.09,8.46
		c-6.18,0-9.38-3.71-9.34-8.98H479.7z"/>
	<path style="fill:#FFFFFF;" d="M496.29,213.56h5.48v27.22h-5.48V213.56z"/>
	<path style="fill:#FFFFFF;" d="M527.23,221.92c-0.55-0.85-1.21-1.62-2.02-2.24c-1.4-1.1-3.13-1.8-5.22-1.8
		c-4.38,0-8.83,3.31-8.83,9.23c0,6.14,4.49,9.38,8.83,9.38c2.17,0,4.01-0.63,5.41-1.66c1.43-1.03,2.39-2.5,2.8-4.12h-10.15v-4.42
		h16.48c0.07,1.8-0.18,4.56-1.21,6.84c-2.54,5.67-8.39,8.17-13.28,8.17c-8.13,0-14.35-6.29-14.35-14.2
		c0-8.13,6.47-14.05,14.42-14.05c6.14,0,11.55,3.9,13.32,8.87H527.23z"/>
	<path style="fill:#FFFFFF;" d="M555.71,232.44l-0.11-18.87h5.26v27.22H556l-12.54-18.84l0.11,18.84h-5.26v-27.22h4.89
		L555.71,232.44z"/>
	<path style="fill:#FFFFFF;" d="M566.04,213.56h15.27v4.82h-9.79v6.18h9.6v4.82h-9.6v6.58h9.79v4.82h-15.27V213.56z"/>
	<path style="fill:#FFFFFF;" d="M585.54,213.56h8.24c4.23,0,6.66,0.66,8.13,1.73c2.24,1.62,3.46,4.38,3.46,7.39
		c0,1.99-0.55,3.75-1.47,5.08c-1.18,1.73-2.72,2.5-4.49,2.94l6.07,10.08h-5.74l-7.32-12.66h1.07c1.8,0,3.75-0.11,4.89-0.99
		c1.07-0.88,1.73-2.32,1.73-3.97s-0.81-3.16-2.02-3.94c-0.99-0.63-2.32-0.85-3.86-0.85h-3.2v22.4h-5.48V213.56z"/>
</g>
</svg>
