<?xml version="1.0" encoding="utf-8"?>
<!-- Generator: Adobe Illustrator 24.0.0, SVG Export Plug-In . SVG Version: 6.00 Build 0)  -->
<svg version="1.1" id="Layer_1" xmlns="http://www.w3.org/2000/svg" xmlns:xlink="http://www.w3.org/1999/xlink" x="0px" y="0px"
	 viewBox="0 0 1387.28 208.05" style="enable-background:new 0 0 1387.28 208.05;" xml:space="preserve">
<g>
	<path style="fill:#FFFFFF;" d="M45.81,24.58H0V8.04h111.51v16.54H65.48v134.08H45.81V24.58z"/>
	<path style="fill:#FFFFFF;" d="M173.19,158.66l-1.56-13.63h-0.67c-6.03,8.49-17.65,16.09-33.07,16.09
		c-21.9,0-33.07-15.42-33.07-31.06c0-26.15,23.24-40.45,65.03-40.22V87.6c0-8.94-2.46-25.03-24.58-25.03
		c-10.06,0-20.56,3.13-28.16,8.04l-4.47-12.96c8.94-5.81,21.9-9.61,35.53-9.61c33.07,0,41.12,22.57,41.12,44.25v40.45
		c0,9.39,0.45,18.55,1.79,25.92H173.19z M170.28,103.46c-21.45-0.45-45.81,3.35-45.81,24.36c0,12.74,8.49,18.77,18.55,18.77
		c14.08,0,23.02-8.94,26.15-18.1c0.67-2.01,1.12-4.25,1.12-6.26V103.46z"/>
	<path style="fill:#FFFFFF;" d="M226.37,50.5l23.69,63.91c2.46,7.15,5.14,15.64,6.93,22.12h0.45c2.01-6.48,4.25-14.75,6.93-22.57
		l21.45-63.46h20.78l-29.5,77.1c-14.08,37.1-23.69,56.09-37.1,67.71c-9.61,8.49-19.22,11.84-24.13,12.74l-4.92-16.54
		c4.92-1.56,11.4-4.69,17.21-9.61c5.36-4.25,12.07-11.84,16.54-21.9c0.89-2.01,1.56-3.58,1.56-4.69s-0.45-2.68-1.34-5.14l-40-99.67
		H226.37z"/>
	<path style="fill:#FFFFFF;" d="M324.48,0h19.67v158.66h-19.67V0z"/>
	<path style="fill:#FFFFFF;" d="M475.09,103.69c0,40-27.71,57.43-53.85,57.43c-29.27,0-51.84-21.45-51.84-55.64
		c0-36.2,23.69-57.43,53.63-57.43C454.08,48.04,475.09,70.62,475.09,103.69z M389.28,104.81c0,23.69,13.63,41.56,32.85,41.56
		c18.77,0,32.85-17.65,32.85-42.01c0-18.32-9.16-41.56-32.4-41.56S389.28,84.25,389.28,104.81z"/>
	<path style="fill:#FFFFFF;" d="M499.9,84.25c0-12.74-0.22-23.69-0.89-33.74h17.21l0.67,21.23h0.89
		c4.92-14.53,16.76-23.69,29.94-23.69c2.23,0,3.8,0.22,5.59,0.67v18.55c-2.01-0.45-4.02-0.67-6.7-0.67
		c-13.85,0-23.69,10.5-26.37,25.25c-0.45,2.68-0.89,5.81-0.89,9.16v57.65H499.9V84.25z"/>
	<path style="fill:#FFFFFF;" d="M621.01,10.06c11.84-1.79,25.92-3.13,41.34-3.13c27.93,0,47.82,6.48,61.01,18.77
		c13.41,12.29,21.23,29.72,21.23,54.08c0,24.58-7.6,44.69-21.68,58.55C708.84,152.4,685.6,160,656.32,160
		c-13.85,0-25.48-0.67-35.31-1.79V10.06z M640.46,143.24c4.92,0.89,12.07,1.12,19.67,1.12c41.56,0,64.13-23.24,64.13-63.91
		c0.22-35.53-19.89-58.1-61.01-58.1c-10.06,0-17.65,0.89-22.79,2.01V143.24z"/>
	<path style="fill:#FFFFFF;" d="M867.94,103.69c0,40-27.71,57.43-53.85,57.43c-29.28,0-51.85-21.45-51.85-55.64
		c0-36.2,23.69-57.43,53.63-57.43C846.94,48.04,867.94,70.62,867.94,103.69z M782.13,104.81c0,23.69,13.63,41.56,32.85,41.56
		c18.77,0,32.85-17.65,32.85-42.01c0-18.32-9.16-41.56-32.4-41.56S782.13,84.25,782.13,104.81z"/>
	<path style="fill:#FFFFFF;" d="M916.44,19.44V50.5h28.16v14.97h-28.16v58.32c0,13.41,3.8,21.01,14.75,21.01
		c5.14,0,8.94-0.67,11.4-1.34l0.89,14.75c-3.8,1.56-9.83,2.68-17.43,2.68c-9.16,0-16.54-2.91-21.23-8.27
		c-5.59-5.81-7.6-15.42-7.6-28.16v-59h-16.76V50.5h16.76V24.58L916.44,19.44z"/>
	<path style="fill:#FFFFFF;" d="M964.03,138.55c5.81,3.8,16.09,7.82,25.92,7.82c14.3,0,21-7.15,21-16.09
		c0-9.39-5.59-14.53-20.11-19.89c-19.44-6.93-28.6-17.65-28.6-30.61c0-17.43,14.08-31.73,37.32-31.73c10.95,0,20.56,3.13,26.59,6.7
		l-4.92,14.3c-4.25-2.68-12.07-6.26-22.12-6.26c-11.62,0-18.1,6.7-18.1,14.75c0,8.94,6.48,12.96,20.56,18.32
		c18.77,7.15,28.38,16.54,28.38,32.63c0,19-14.75,32.4-40.45,32.4c-11.84,0-22.79-2.91-30.39-7.38L964.03,138.55z"/>
	<path style="fill:#FFFFFF;" d="M1077.11,20.11c0.22,6.7-4.69,12.07-12.52,12.07c-6.93,0-11.84-5.36-11.84-12.07
		c0-6.93,5.14-12.29,12.29-12.29C1072.42,7.82,1077.11,13.18,1077.11,20.11z M1055.21,158.66V50.5h19.66v108.16H1055.21z"/>
	<path style="fill:#FFFFFF;" d="M1126.94,100.11h0.45c2.68-3.8,6.48-8.49,9.61-12.29l31.73-37.32h23.69l-41.79,44.47l47.6,63.69
		h-23.91L1137,106.82l-10.05,11.17v40.67h-19.44V0h19.44V100.11z"/>
	<path style="fill:#FFFFFF;" d="M1276.21,158.66l-1.56-13.63h-0.67c-6.03,8.49-17.65,16.09-33.07,16.09
		c-21.9,0-33.07-15.42-33.07-31.06c0-26.15,23.24-40.45,65.03-40.22V87.6c0-8.94-2.46-25.03-24.58-25.03
		c-10.06,0-20.56,3.13-28.16,8.04l-4.47-12.96c8.94-5.81,21.9-9.61,35.53-9.61c33.07,0,41.12,22.57,41.12,44.25v40.45
		c0,9.39,0.45,18.55,1.79,25.92H1276.21z M1273.31,103.46c-21.45-0.45-45.81,3.35-45.81,24.36c0,12.74,8.49,18.77,18.55,18.77
		c14.08,0,23.02-8.94,26.14-18.1c0.67-2.01,1.12-4.25,1.12-6.26V103.46z"/>
	<path style="fill:#FFFFFF;" d="M1321.35,138.55c5.81,3.8,16.09,7.82,25.92,7.82c14.3,0,21-7.15,21-16.09
		c0-9.39-5.59-14.53-20.11-19.89c-19.44-6.93-28.6-17.65-28.6-30.61c0-17.43,14.08-31.73,37.32-31.73c10.95,0,20.56,3.13,26.59,6.7
		l-4.92,14.3c-4.25-2.68-12.07-6.26-22.12-6.26c-11.62,0-18.1,6.7-18.1,14.75c0,8.94,6.48,12.96,20.56,18.32
		c18.77,7.15,28.38,16.54,28.38,32.63c0,19-14.75,32.4-40.45,32.4c-11.84,0-22.79-2.91-30.39-7.38L1321.35,138.55z"/>
</g>
</svg>
