<?xml version="1.0" encoding="utf-8"?>
<!-- Generator: Adobe Illustrator 18.0.0, SVG Export Plug-In . SVG Version: 6.00 Build 0)  -->
<!DOCTYPE svg PUBLIC "-//W3C//DTD SVG 1.1//EN" "http://www.w3.org/Graphics/SVG/1.1/DTD/svg11.dtd">
<svg version="1.1" id="Layer_1" xmlns="http://www.w3.org/2000/svg" xmlns:xlink="http://www.w3.org/1999/xlink" x="0px" y="0px"
	 viewBox="-88.5 88.5 600 423" enable-background="new -88.5 88.5 600 423" xml:space="preserve">
<title>ipad</title>
<g>
	<path d="M-65.5,88.5c-12.7,0-23,10.4-23,23v377c0,12.6,10.3,23,23,23h554c12.7,0,23-10.4,23-23v-377c0-12.6-10.3-23-23-23H-65.5z"
		/>
	<g>
		
			<linearGradient id="SVGID_1_" gradientUnits="userSpaceOnUse" x1="178.9729" y1="336.9769" x2="179.4346" y2="336.4187" gradientTransform="matrix(1.020140e-09 -22.722 -22.724 -1.020231e-09 8132.4155 4375.3081)">
			<stop  offset="0" style="stop-color:#0A0A0A"/>
			<stop  offset="0.5263" style="stop-color:#353535"/>
			<stop  offset="1" style="stop-color:#656565"/>
		</linearGradient>
		<path fill="url(#SVGID_1_)" d="M472.1,300c0,7.4,6,13.3,13.3,13.3c3.7,0,7-1.5,9.4-3.9L476,290.6
			C473.5,293.1,472.1,296.5,472.1,300z"/>
		
			<linearGradient id="SVGID_2_" gradientUnits="userSpaceOnUse" x1="179.4282" y1="336.1599" x2="179.2045" y2="336.6983" gradientTransform="matrix(1.020185e-09 -22.723 -22.723 -1.020186e-09 8135.9902 4371.5947)">
			<stop  offset="0" style="stop-color:#0A0A0A"/>
			<stop  offset="0.4251" style="stop-color:#353535"/>
			<stop  offset="0.83" style="stop-color:#575757"/>
		</linearGradient>
		<path fill="url(#SVGID_2_)" d="M485.4,286.7c-3.7,0-7,1.5-9.4,3.9l18.8,18.8c2.5-2.5,3.9-5.9,3.9-9.4
			C498.7,292.6,492.8,286.7,485.4,286.7z"/>
		<path d="M485.4,311.9c6.6,0,11.9-5.3,11.9-11.9c0-6.6-5.3-11.9-11.9-11.9c-6.6,0-11.9,5.3-11.9,11.9
			C473.5,306.6,478.9,311.9,485.4,311.9z"/>
	</g>
	<path fill="none" d="M508.5,488.5c0,11-9,20-20,20h-554c-11,0-20-9-20-20v-377c0-11,9-20,20-20h554c11,0,20,9,20,20
		C508.5,111.5,508.5,488.5,508.5,488.5z"/>
	<path fill="none" d="M-65.5,511.5v-3h554v3H-65.5z M-65.5,91.5v-3h554v3H-65.5z M-65.5,88.5c-12.7,0-23,10.4-23,23h3
		c0-11,9-20,20-20V88.5z M-88.5,488.5c0,12.6,10.3,23,23,23v-3c-11,0-20-9-20-20H-88.5z M488.5,511.5c12.7,0,23-10.4,23-23h-3
		c0,11-9,20-20,20V511.5z"/>
	<g>
		
			<linearGradient id="SVGID_3_" gradientUnits="userSpaceOnUse" x1="178.8696" y1="336.4565" x2="179.8696" y2="336.4565" gradientTransform="matrix(1.032622e-09 -23 -23 -1.032622e-09 7661.5171 4225.4829)">
			<stop  offset="0" style="stop-color:#23222B"/>
			<stop  offset="0.2308" style="stop-color:#787878"/>
			<stop  offset="0.7287" style="stop-color:#787878"/>
			<stop  offset="1" style="stop-color:#23222B"/>
		</linearGradient>
		<path fill="url(#SVGID_3_)" d="M-65.5,88.5c-12.7,0-23,10.4-23,23h3c0-11,9-20,20-20V88.5z"/>
		
			<linearGradient id="SVGID_4_" gradientUnits="userSpaceOnUse" x1="175.5435" y1="315.8633" x2="175.5435" y2="316.7766" gradientTransform="matrix(23 0 0 -23 -3537.4829 7776.5171)">
			<stop  offset="0" style="stop-color:#23222B"/>
			<stop  offset="0.2308" style="stop-color:#787878"/>
			<stop  offset="0.7287" style="stop-color:#787878"/>
			<stop  offset="1" style="stop-color:#23222B"/>
		</linearGradient>
		<path fill="url(#SVGID_4_)" d="M488.5,511.5c12.6,0,23-10.3,23-23h-3c0,11-9,20-20,20V511.5z"/>
		
			<linearGradient id="SVGID_5_" gradientUnits="userSpaceOnUse" x1="178.8696" y1="336.4565" x2="179.8696" y2="336.4565" gradientTransform="matrix(1.032622e-09 -23 -23 -1.032622e-09 7661.5171 4625.4829)">
			<stop  offset="0" style="stop-color:#23222B"/>
			<stop  offset="0.2308" style="stop-color:#787878"/>
			<stop  offset="0.7287" style="stop-color:#787878"/>
			<stop  offset="1" style="stop-color:#23222B"/>
		</linearGradient>
		<path fill="url(#SVGID_5_)" d="M-88.5,488.5c0,12.6,10.3,23,23,23v-3c-11,0-20-9-20-20H-88.5z"/>
		
			<linearGradient id="SVGID_6_" gradientUnits="userSpaceOnUse" x1="186.504" y1="416.1667" x2="187.504" y2="416.1667" gradientTransform="matrix(1.692601e-08 -377 -3 -1.346898e-10 1161.517 70800.4844)">
			<stop  offset="0" style="stop-color:#6F7074"/>
			<stop  offset="0.2389" style="stop-color:#ACAEAF"/>
			<stop  offset="0.7328" style="stop-color:#ACAEAF"/>
			<stop  offset="1" style="stop-color:#383840"/>
		</linearGradient>
		<path fill="url(#SVGID_6_)" d="M-88.5,488.5v-377h3v377H-88.5z"/>
		
			<linearGradient id="SVGID_7_" gradientUnits="userSpaceOnUse" x1="178.8696" y1="336.4565" x2="179.8696" y2="336.4565" gradientTransform="matrix(1.032622e-09 -23 -23 -1.032622e-09 8238.5166 4225.4829)">
			<stop  offset="0" style="stop-color:#23222B"/>
			<stop  offset="0.2308" style="stop-color:#787878"/>
			<stop  offset="0.7287" style="stop-color:#787878"/>
			<stop  offset="1" style="stop-color:#23222B"/>
		</linearGradient>
		<path fill="url(#SVGID_7_)" d="M511.5,111.5c0-12.6-10.3-23-23-23v3c11,0,20,9,20,20H511.5z"/>
		
			<linearGradient id="SVGID_8_" gradientUnits="userSpaceOnUse" x1="186.504" y1="416.1667" x2="187.504" y2="416.1667" gradientTransform="matrix(1.692601e-08 -377 -3 -1.346898e-10 1758.517 70800.4844)">
			<stop  offset="0" style="stop-color:#23222B"/>
			<stop  offset="0.2308" style="stop-color:#ACAEAF"/>
			<stop  offset="0.7287" style="stop-color:#ACAEAF"/>
			<stop  offset="1" style="stop-color:#23222B"/>
		</linearGradient>
		<path fill="url(#SVGID_8_)" d="M508.5,488.5v-377h3v377H508.5z"/>
		
			<linearGradient id="SVGID_9_" gradientUnits="userSpaceOnUse" x1="0.5002" y1="324.4964" x2="0.5002" y2="325.4964" gradientTransform="matrix(4.489659e-11 -1 -554 -2.487271e-08 180259.5156 509.483)">
			<stop  offset="0" style="stop-color:#23222B"/>
			<stop  offset="9.310000e-02" style="stop-color:#A3A4A6"/>
			<stop  offset="0.7895" style="stop-color:#A3A4A6"/>
			<stop  offset="1" style="stop-color:#383840"/>
		</linearGradient>
		<path fill="url(#SVGID_9_)" d="M-65.5,509.5v-1h554v1H-65.5z"/>
		
			<linearGradient id="SVGID_10_" gradientUnits="userSpaceOnUse" x1="0.5002" y1="324.4964" x2="0.5002" y2="325.4964" gradientTransform="matrix(4.489659e-11 -1 -554 -2.487271e-08 180259.5156 510.483)">
			<stop  offset="0" style="stop-color:#23222B"/>
			<stop  offset="9.310000e-02" style="stop-color:#A8ABAC"/>
			<stop  offset="0.7895" style="stop-color:#A8ABAC"/>
			<stop  offset="1" style="stop-color:#383840"/>
		</linearGradient>
		<path fill="url(#SVGID_10_)" d="M-65.5,510.5v-1h554v1H-65.5z"/>
		
			<linearGradient id="SVGID_11_" gradientUnits="userSpaceOnUse" x1="0.5002" y1="324.4964" x2="0.5002" y2="325.4964" gradientTransform="matrix(4.489659e-11 -1 -554 -2.487271e-08 180259.5156 511.483)">
			<stop  offset="0" style="stop-color:#23222B"/>
			<stop  offset="9.310000e-02" style="stop-color:#989A9C"/>
			<stop  offset="0.7895" style="stop-color:#989A9C"/>
			<stop  offset="1" style="stop-color:#383840"/>
		</linearGradient>
		<path fill="url(#SVGID_11_)" d="M-65.5,511.5v-1h554v1H-65.5z"/>
		
			<linearGradient id="SVGID_12_" gradientUnits="userSpaceOnUse" x1="94.5" y1="324.9964" x2="93.5" y2="324.9964" gradientTransform="matrix(8.979319e-11 -2 -554 -2.487271e-08 180259.5156 277.483)">
			<stop  offset="0" style="stop-color:#2E2E35"/>
			<stop  offset="5.000000e-02" style="stop-color:#A1A3A5"/>
			<stop  offset="0.7895" style="stop-color:#A1A3A5"/>
			<stop  offset="1" style="stop-color:#2E2E35"/>
		</linearGradient>
		<path fill="url(#SVGID_12_)" d="M-65.5,89.5v-1h554v1H-65.5z M-65.5,90.5v-1h554v1H-65.5z"/>
		
			<linearGradient id="SVGID_13_" gradientUnits="userSpaceOnUse" x1="1" y1="324.9964" x2="-1.660512e-06" y2="324.9964" gradientTransform="matrix(4.489659e-11 -1 -554 -2.487271e-08 180259.5156 91.483)">
			<stop  offset="0" style="stop-color:#2E2E35"/>
			<stop  offset="3.640000e-02" style="stop-color:#A1A3A5"/>
			<stop  offset="0.9231" style="stop-color:#A1A3A5"/>
			<stop  offset="1" style="stop-color:#2E2E35"/>
		</linearGradient>
		<path fill="url(#SVGID_13_)" d="M-65.5,91.5v-1h554v1H-65.5z"/>
	</g>
	<g>
		
			<linearGradient id="SVGID_14_" gradientUnits="userSpaceOnUse" x1="167.0562" y1="354.398" x2="167.7633" y2="353.6909" gradientTransform="matrix(4.178975e-10 -9.308 -9.308 -4.178974e-10 3234.6155 1858.1129)">
			<stop  offset="0" style="stop-color:#1A1A1A"/>
			<stop  offset="0.5992" style="stop-color:#353535"/>
			<stop  offset="1" style="stop-color:#5A5A5A"/>
		</linearGradient>
		<path fill="url(#SVGID_14_)" d="M-60.8,304.5c2.6,0,4.7-2.1,4.7-4.7s-2.1-4.7-4.7-4.7c-2.6,0-4.7,2.1-4.7,4.7
			C-65.5,302.4-63.4,304.5-60.8,304.5"/>
		<path fill="#3F5A83" d="M-59.8,301.7c-0.4,0-0.8-0.4-0.8-0.8c0-0.4,0.4-0.8,0.8-0.8c0.4,0,0.8,0.4,0.8,0.8S-59.3,301.7-59.8,301.7
			"/>
	</g>
</g>
</svg>
