<?xml version="1.0" encoding="utf-8"?>
<!-- Generator: Adobe Illustrator 18.0.0, SVG Export Plug-In . SVG Version: 6.00 Build 0)  -->
<!DOCTYPE svg PUBLIC "-//W3C//DTD SVG 1.1//EN" "http://www.w3.org/Graphics/SVG/1.1/DTD/svg11.dtd">
<svg version="1.1" id="Layer_1" xmlns="http://www.w3.org/2000/svg" xmlns:xlink="http://www.w3.org/1999/xlink" x="0px" y="0px"
	 viewBox="0 0 294.7 600" enable-background="new 0 0 294.7 600" xml:space="preserve">
<g>
	<g>
		<path fill="#595A60" d="M293.7,555c-0.1,24.8-20.3,45-45.1,45H48.1c-24.8,0-45-20.2-45-45V45c0-24.8,20.2-45,45-45h201.7
			c24.8,0,45,20.2,44.9,45L293.7,555z"/>
		<path fill="#83848A" d="M48.1,598c-23.7,0-43-19.3-43-43V45c0-23.7,19.3-43,43-43h201.7c11.4,0,22.2,4.5,30.3,12.6
			s12.6,18.9,12.6,30.4l-1.1,510c0,23.7-19.4,43-43.1,43H48.1z"/>
		<path fill="#111111" d="M48.1,596c-22.6,0-41-18.4-41-41V45c0-22.6,18.4-41,41-41h201.7c10.9,0,21.2,4.3,28.9,12
			c7.8,7.8,12,18,12,28.9l-1.1,510c0,22.6-18.5,41-41.1,41H48.1z"/>
		<path d="M48.1,594c-21.5,0-39-17.5-39-39V45c0-21.5,17.5-39,39-39h201.7c10.4,0,20.1,4.1,27.5,11.5c7.4,7.4,11.4,17.2,11.4,27.5
			l-1.1,510c0,21.5-17.6,39-39.1,39L48.1,594L48.1,594L48.1,594z"/>
		<path fill="#323232" d="M12.5,555V45c0-14,6.7-26.5,17.2-34.3C17.4,17.3,9.1,30.2,9.1,45v510c0,14.8,8.3,27.7,20.5,34.3
			C19.2,581.5,12.5,569,12.5,555z"/>
	</g>
	<path d="M19.6,530.8V73.2h258.7l-1.2,457.7H19.6z M276.6,532.3c1.1,0,2-0.9,2-2l1.2-456.7c0-1.1-0.9-2-2-2H20.1c-1.1,0-2,0.9-2,2
		v456.7c0,1.1,0.9,2,2,2H276.6z"/>
	<g>
		
			<linearGradient id="SVGID_1_" gradientUnits="userSpaceOnUse" x1="-137.2615" y1="705.5685" x2="-136.7999" y2="705.0101" gradientTransform="matrix(39.88 0 0 -39.882 5606.9712 28685.8789)">
			<stop  offset="0" style="stop-color:#0A0A0A"/>
			<stop  offset="0.5263" style="stop-color:#353535"/>
			<stop  offset="1" style="stop-color:#656565"/>
		</linearGradient>
		<path fill="url(#SVGID_1_)" d="M148.3,541.4c-12.9,0-23.4,10.5-23.4,23.4c0,6.5,2.6,12.3,6.8,16.5l33-33
			C160.4,543.9,154.5,541.4,148.3,541.4z"/>
		
			<linearGradient id="SVGID_2_" gradientUnits="userSpaceOnUse" x1="-136.6682" y1="704.8604" x2="-137.0466" y2="705.2754" gradientTransform="matrix(39.881 0 0 -39.881 5613.96 28692.0156)">
			<stop  offset="0" style="stop-color:#0A0A0A"/>
			<stop  offset="0.4251" style="stop-color:#353535"/>
			<stop  offset="0.83" style="stop-color:#575757"/>
		</linearGradient>
		<path fill="url(#SVGID_2_)" d="M171.6,564.8c0-6.2-2.5-12.1-6.8-16.5l-33,33c4.4,4.4,10.3,6.9,16.5,6.8
			C161.2,588.1,171.6,577.7,171.6,564.8z"/>
		<path d="M127.3,564.8c0,11.5,9.4,20.9,20.9,20.9c11.5,0,20.9-9.4,20.9-20.9c0-11.5-9.4-20.9-20.9-20.9
			C136.7,543.9,127.3,553.2,127.3,564.8z"/>
	</g>
	
		<linearGradient id="SVGID_3_" gradientUnits="userSpaceOnUse" x1="-125.7053" y1="697.9696" x2="-124.9982" y2="697.2625" gradientTransform="matrix(9.308 0 0 -9.308 1268.4148 6531.4409)">
		<stop  offset="0" style="stop-color:#1A1A1A"/>
		<stop  offset="0.5992" style="stop-color:#353535"/>
		<stop  offset="1" style="stop-color:#5A5A5A"/>
	</linearGradient>
	<path fill="url(#SVGID_3_)" d="M97,38c0,2.6,2.1,4.7,4.7,4.7s4.7-2.1,4.7-4.7c0,0,0,0,0,0c0-2.6-2.1-4.7-4.7-4.7
		C99.1,33.4,97,35.5,97,38"/>
	<path fill="#3F5A83" d="M99.8,39.1c0-0.4,0.4-0.8,0.8-0.8c0.4,0,0.8,0.4,0.8,0.8c0,0.4-0.4,0.8-0.8,0.8S99.8,39.5,99.8,39.1"/>
	<g>
		
			<linearGradient id="SVGID_4_" gradientUnits="userSpaceOnUse" x1="-95.5096" y1="705.7754" x2="-95.5096" y2="704.7837" gradientTransform="matrix(3.134 0 0 -41.5 300.894 29474.9863)">
			<stop  offset="0" style="stop-color:#666666"/>
			<stop  offset="0.1417" style="stop-color:#ADADAD"/>
			<stop  offset="0.8302" style="stop-color:#B8B8B8"/>
			<stop  offset="1" style="stop-color:#666666"/>
		</linearGradient>
		<path fill="url(#SVGID_4_)" d="M1.5,185c-0.8,0-1.5,0.7-1.5,1.5L0,225c0,0.8,0.7,1.5,1.5,1.5h1.7V185H1.5z"/>
		
			<linearGradient id="SVGID_5_" gradientUnits="userSpaceOnUse" x1="-54.2087" y1="705.7966" x2="-54.2087" y2="704.7376" gradientTransform="matrix(1.634 0 0 -41.273 89.394 29314.3867)">
			<stop  offset="0" style="stop-color:#4F4F4F"/>
			<stop  offset="0.1417" style="stop-color:#7A7A7A"/>
			<stop  offset="0.8302" style="stop-color:#858585"/>
			<stop  offset="1" style="stop-color:#404040"/>
		</linearGradient>
		<path fill="url(#SVGID_5_)" d="M1.6,187.2c0-0.8-0.3-1.5-0.7-2.1c-0.6,0.2-0.9,0.8-0.9,1.4L0,225c0,0.6,0.4,1.1,0.9,1.4
			c0.5-0.6,0.7-1.3,0.7-2.1L1.6,187.2z"/>
	</g>
	<g>
		
			<linearGradient id="SVGID_6_" gradientUnits="userSpaceOnUse" x1="-95.5096" y1="705.7754" x2="-95.5096" y2="704.7837" gradientTransform="matrix(3.134 0 0 -41.5 300.894 29420.9863)">
			<stop  offset="0" style="stop-color:#666666"/>
			<stop  offset="0.1417" style="stop-color:#ADADAD"/>
			<stop  offset="0.8302" style="stop-color:#B8B8B8"/>
			<stop  offset="1" style="stop-color:#666666"/>
		</linearGradient>
		<path fill="url(#SVGID_6_)" d="M1.5,131c-0.8,0-1.5,0.7-1.5,1.5L0,171c0,0.8,0.7,1.5,1.5,1.5h1.7V131H1.5z"/>
		
			<linearGradient id="SVGID_7_" gradientUnits="userSpaceOnUse" x1="-54.2087" y1="705.7966" x2="-54.2087" y2="704.7376" gradientTransform="matrix(1.634 0 0 -41.273 89.394 29260.3867)">
			<stop  offset="0" style="stop-color:#4F4F4F"/>
			<stop  offset="0.1417" style="stop-color:#7A7A7A"/>
			<stop  offset="0.8302" style="stop-color:#858585"/>
			<stop  offset="1" style="stop-color:#404040"/>
		</linearGradient>
		<path fill="url(#SVGID_7_)" d="M1.6,133.2c0-0.8-0.3-1.5-0.7-2.1c-0.6,0.2-0.9,0.8-0.9,1.4L0,171c0,0.6,0.4,1.1,0.9,1.4
			c0.5-0.6,0.7-1.3,0.7-2.1L1.6,133.2z"/>
	</g>
	<path fill="#212121" d="M285.2,555V45c0-14-6.7-26.5-17.2-34.3c12.2,6.6,20.5,19.5,20.5,34.3v510c0,14.8-8.3,27.7-20.5,34.3
		C278.4,581.5,285.2,569,285.2,555z"/>
	<g>
		<path fill="#505050" d="M292.7,45.3l0,8.6h2l0-8.6"/>
		<path fill="#6E6E6E" d="M290.7,53.9h2l0-8.6h-2"/>
		<path fill="#505050" d="M5.1,45.3l0,8.6h-2l0-8.6"/>
		<path fill="#6E6E6E" d="M7.1,53.9h-2l0-8.6h2"/>
	</g>
	<path d="M19.6,532.3c-0.8,0-1.5-0.7-1.5-1.5V73.2c0-0.8,0.7-1.5,1.5-1.5h258.1c0.8,0,1.5,0.7,1.5,1.5v457.7c0,0.8-0.7,1.5-1.5,1.5
		H19.6z M277.7,530.8V73.2H19.6v457.7H277.7z"/>
	<path fill="#1A1A1A" stroke="#0D0D0D" stroke-width="0.136" d="M128.1,40.2c-1.2,0-2.2-1-2.2-2.2v-0.2c0-1.2,1-2.2,2.2-2.2h41.7
		c1.2,0,2.2,1,2.2,2.2V38c0,1.2-1,2.2-2.2,2.2H128.1z"/>
	<path fill="none" d="M128.1,35.6c-1.2,0-2.2,1-2.2,2.2V38c0,1.2,1,2.2,2.2,2.2h41.7c1.2,0,2.2-1,2.2-2.2v-0.2c0-1.2-1-2.2-2.2-2.2
		H128.1z"/>
	
		<radialGradient id="SVGID_8_" cx="-119.7891" cy="693.9844" r="0.5" gradientTransform="matrix(6.808 0 0 -6.807 963.9155 4742.0396)" gradientUnits="userSpaceOnUse">
		<stop  offset="0" style="stop-color:#454545"/>
		<stop  offset="0.5587" style="stop-color:#353535"/>
		<stop  offset="1" style="stop-color:#1A1A1A"/>
	</radialGradient>
	<path fill="url(#SVGID_8_)" d="M145,18c0,1.9,1.5,3.4,3.3,3.5c1.9,0,3.4-1.5,3.5-3.3c0,0,0-0.1,0-0.1c0-1.9-1.6-3.4-3.5-3.3
		C146.5,14.7,145,16.2,145,18"/>
</g>
</svg>
