<?xml version="1.0" encoding="utf-8"?>
<!-- Generator: Adobe Illustrator 18.0.0, SVG Export Plug-In . SVG Version: 6.00 Build 0)  -->
<!DOCTYPE svg PUBLIC "-//W3C//DTD SVG 1.1//EN" "http://www.w3.org/Graphics/SVG/1.1/DTD/svg11.dtd">
<svg version="1.1" id="Layer_1" xmlns="http://www.w3.org/2000/svg" xmlns:xlink="http://www.w3.org/1999/xlink" x="0px" y="0px"
	 viewBox="0 0 50 50" enable-background="new 0 0 50 50" xml:space="preserve">
<g>
	<path d="M47.5,0H2.5C1.1,0,0,1.1,0,2.5v44.9C0,48.9,1.1,50,2.5,50h44.9c1.4,0,2.5-1.1,2.5-2.5V2.5C50,1.1,48.9,0,47.5,0z"/>
	<path fill="#999999" d="M47.5,1C48.3,1,49,1.7,49,2.5v44.9c0,0.8-0.7,1.5-1.5,1.5H2.5C1.7,49,1,48.3,1,47.5V2.5C1,1.7,1.7,1,2.5,1
		H47.5 M47.5,0H2.5C1.1,0,0,1.1,0,2.5v44.9C0,48.9,1.1,50,2.5,50h44.9c1.4,0,2.5-1.1,2.5-2.5V2.5C50,1.1,48.9,0,47.5,0L47.5,0z"/>
</g>
<path fill="#999999" d="M33.3,26c0-3.8,3.1-5.7,3.3-5.8c-1.8-2.6-4.6-3-5.6-3c-2.4-0.2-4.6,1.4-5.8,1.4c-1.2,0-3.1-1.4-5-1.3
	c-2.6,0-5,1.5-6.3,3.8c-2.7,4.6-0.7,11.5,1.9,15.3c1.3,1.8,2.8,3.9,4.8,3.8c1.9-0.1,2.7-1.2,5-1.2s3,1.2,5,1.2
	c2.1,0,3.4-1.9,4.6-3.7c1.5-2.1,2.1-4.2,2.1-4.3C37.3,32.1,33.3,30.5,33.3,26L33.3,26z M29.5,14.7c1.1-1.3,1.8-3.1,1.6-4.9
	c-1.5,0.1-3.4,1-4.5,2.3c-1,1.1-1.8,3-1.6,4.7C26.7,16.9,28.4,15.9,29.5,14.7L29.5,14.7z"/>
</svg>
