<?xml version="1.0" encoding="utf-8"?>
<!-- Generator: Adobe Illustrator 18.0.0, SVG Export Plug-In . SVG Version: 6.00 Build 0)  -->
<!DOCTYPE svg PUBLIC "-//W3C//DTD SVG 1.1//EN" "http://www.w3.org/Graphics/SVG/1.1/DTD/svg11.dtd">
<svg version="1.1" id="Layer_1" xmlns="http://www.w3.org/2000/svg" xmlns:xlink="http://www.w3.org/1999/xlink" x="0px" y="0px"
	 viewBox="0 0 50 50" enable-background="new 0 0 50 50" xml:space="preserve">
<g>
	<path d="M47.5,0H2.5C1.1,0,0,1.1,0,2.5v44.9C0,48.9,1.1,50,2.5,50h44.9c1.4,0,2.5-1.1,2.5-2.5V2.5C50,1.1,48.9,0,47.5,0z"/>
	<path fill="#999999" d="M47.5,1C48.3,1,49,1.7,49,2.5v44.9c0,0.8-0.7,1.5-1.5,1.5H2.5C1.7,49,1,48.3,1,47.5V2.5C1,1.7,1.7,1,2.5,1
		H47.5 M47.5,0H2.5C1.1,0,0,1.1,0,2.5v44.9C0,48.9,1.1,50,2.5,50h44.9c1.4,0,2.5-1.1,2.5-2.5V2.5C50,1.1,48.9,0,47.5,0L47.5,0z"/>
</g>
<g>
	<path fill="#999999" d="M37,21c-1.1,0-2,0.9-2,2v8c0,1.1,0.9,2,2,2s2-0.9,2-2v-8C39,21.9,38.1,21,37,21z M13,21c-1.1,0-2,0.9-2,2v8
		c0,1.1,0.9,2,2,2s2-0.9,2-2v-8C15,21.9,14.1,21,13,21z M16,32c0,1.7,1.3,3,3,3l0,0v4c0,1.1,0.9,2,2,2s2-0.9,2-2v-4h4v4
		c0,1.1,0.9,2,2,2s2-0.9,2-2v-4c1.7,0,3-1.3,3-3V21H16V32z"/>
	<path fill="#999999" d="M33.9,19c-0.3-2.7-1.8-5.1-4.1-6.6l1-2c0.2-0.5,0-1.1-0.4-1.3c-0.5-0.2-1.1,0-1.3,0.4l-1,2l-0.3-0.1
		C26.9,11.2,26,11,25,11c-1,0-1.9,0.2-2.8,0.5l-0.3,0.1l-1-2c-0.2-0.5-0.8-0.7-1.3-0.4c-0.5,0.2-0.7,0.8-0.4,1.3l1,2
		c-2.2,1.4-3.7,3.8-4.1,6.6v1H34L33.9,19L33.9,19L33.9,19z M22,17c-0.6,0-1-0.4-1-1c0-0.6,0.4-1,1-1c0,0,0,0,0,0c0,0,0,0,0,0
		c0.6,0,1,0.4,1,1C23,16.6,22.5,17,22,17z M28,17c-0.6,0-1-0.4-1-1c0-0.6,0.4-1,1-1c0,0,0,0,0,0c0,0,0,0,0,0c0.6,0,1,0.4,1,1
		C29,16.6,28.5,17,28,17z"/>
</g>
</svg>
