<?xml version="1.0" encoding="utf-8"?>
<!-- Generator: Adobe Illustrator 18.0.0, SVG Export Plug-In . SVG Version: 6.00 Build 0)  -->
<!DOCTYPE svg PUBLIC "-//W3C//DTD SVG 1.1//EN" "http://www.w3.org/Graphics/SVG/1.1/DTD/svg11.dtd">
<svg version="1.1" id="Layer_1" xmlns="http://www.w3.org/2000/svg" xmlns:xlink="http://www.w3.org/1999/xlink" x="0px" y="0px"
	 viewBox="0 0 50 50" enable-background="new 0 0 50 50" xml:space="preserve">
<g>
	<path d="M47.5,0H2.5C1.1,0,0,1.1,0,2.5v44.9C0,48.9,1.1,50,2.5,50h44.9c1.4,0,2.5-1.1,2.5-2.5V2.5C50,1.1,48.9,0,47.5,0z"/>
	<path fill="#999999" d="M47.5,1C48.3,1,49,1.7,49,2.5v44.9c0,0.8-0.7,1.5-1.5,1.5H2.5C1.7,49,1,48.3,1,47.5V2.5C1,1.7,1.7,1,2.5,1
		H47.5 M47.5,0H2.5C1.1,0,0,1.1,0,2.5v44.9C0,48.9,1.1,50,2.5,50h44.9c1.4,0,2.5-1.1,2.5-2.5V2.5C50,1.1,48.9,0,47.5,0L47.5,0z"/>
</g>
<path fill="#999999" d="M25,10.2c-8.1,0-14.8,6.6-14.8,14.8S16.9,39.8,25,39.8c8.1,0,14.8-6.6,14.8-14.8S33.1,10.2,25,10.2z
	 M33.3,29.9c0.3-1.2,0.4-2.6,0.5-3.9h3.9c-0.1,1.4-0.4,2.7-0.9,3.9H33.3z M16.7,20.1c-0.3,1.2-0.4,2.6-0.5,3.9h-3.9
	c0.1-1.4,0.4-2.7,0.9-3.9H16.7z M31.3,20.1c0.3,1.3,0.5,2.6,0.5,3.9H26v-3.9H31.3L31.3,20.1z M26,18.1v-5.8c0.4,0.1,0.9,0.3,1.3,0.7
	c0.8,0.6,1.6,1.5,2.3,2.6c0.5,0.8,0.9,1.6,1.2,2.5L26,18.1L26,18.1z M20.4,15.6c0.7-1.1,1.4-2,2.3-2.6c0.4-0.3,0.9-0.5,1.3-0.7v5.8
	h-4.8C19.6,17.2,20,16.3,20.4,15.6z M24,20.1V24h-5.9c0.1-1.4,0.2-2.7,0.5-3.9H24z M13.2,29.9c-0.5-1.3-0.8-2.6-0.9-3.9h3.9
	c0.1,1.4,0.2,2.7,0.5,3.9C16.7,29.9,13.2,29.9,13.2,29.9z M18.1,26H24v3.9h-5.3C18.4,28.7,18.2,27.3,18.1,26L18.1,26z M24,31.9v5.8
	c-0.4-0.1-0.9-0.3-1.3-0.7c-0.8-0.6-1.6-1.5-2.3-2.6c-0.5-0.8-0.9-1.6-1.2-2.5L24,31.9L24,31.9z M29.6,34.4c-0.7,1.1-1.4,2-2.3,2.6
	c-0.4,0.3-0.9,0.5-1.3,0.7v-5.8h4.8C30.4,32.8,30,33.7,29.6,34.4z M26,29.9V26h5.9c-0.1,1.4-0.2,2.7-0.5,3.9H26L26,29.9z M33.8,24
	c-0.1-1.4-0.2-2.7-0.5-3.9h3.5c0.5,1.3,0.8,2.6,0.9,3.9H33.8z M35.8,18.1h-2.9c-0.6-1.8-1.4-3.4-2.3-4.7c1.3,0.6,2.5,1.5,3.5,2.5
	C34.7,16.6,35.3,17.3,35.8,18.1z M16,16c1-1,2.2-1.9,3.5-2.5c-1,1.3-1.7,2.8-2.3,4.7h-2.9C14.7,17.3,15.3,16.6,16,16L16,16z
	 M14.2,31.9h2.9c0.6,1.8,1.4,3.4,2.3,4.7C18.2,35.9,17,35.1,16,34C15.3,33.4,14.7,32.7,14.2,31.9z M34,34c-1,1-2.2,1.9-3.5,2.5
	c1-1.3,1.7-2.8,2.3-4.7h2.9C35.3,32.7,34.7,33.4,34,34z"/>
</svg>
